<?xml version="1.0" encoding="UTF-8"?><svg id="Capa_1" xmlns="http://www.w3.org/2000/svg" xmlns:xlink="http://www.w3.org/1999/xlink" viewBox="0 0 678.83 678.83"><defs><style>.cls-1{fill:url(#Degradado_sin_nombre_10);}.cls-1,.cls-2,.cls-3,.cls-4,.cls-5{stroke-width:0px;}.cls-6{clip-path:url(#clippath);}.cls-2{fill:none;}.cls-7{clip-path:url(#clippath-1);}.cls-8{clip-path:url(#clippath-3);}.cls-9{clip-path:url(#clippath-2);}.cls-3{fill:url(#Degradado_sin_nombre_10-4);}.cls-4{fill:url(#Degradado_sin_nombre_10-3);}.cls-5{fill:url(#Degradado_sin_nombre_10-2);}</style><clipPath id="clippath"><path class="cls-2" d="M600.05,122.01l-295.01,231.79,302.25,194.05c44.83-57.53,71.54-129.86,71.54-208.44,0-82.72-29.61-158.52-78.78-217.41Z"/></clipPath><linearGradient id="Degradado_sin_nombre_10" x1="339.42" y1="10.11" x2="339.42" y2="688.94" gradientUnits="userSpaceOnUse"><stop offset="0" stop-color="#fbe073"/><stop offset=".32" stop-color="#e9a03f"/><stop offset=".67" stop-color="#cc443e"/><stop offset="1" stop-color="#a23067"/></linearGradient><clipPath id="clippath-1"><path class="cls-2" d="M281.25,228.98l231.16-181.62C461.75,17.29,402.6,0,339.42,0c-19.83,0-39.27,1.72-58.17,4.98v224Z"/></clipPath><linearGradient id="Degradado_sin_nombre_10-2" x1="339.42" x2="339.42" xlink:href="#Degradado_sin_nombre_10"/><clipPath id="clippath-2"><path class="cls-2" d="M166.46,47.34C66.81,106.48,0,215.14,0,339.42s66.81,232.94,166.46,292.07V47.34Z"/></clipPath><linearGradient id="Degradado_sin_nombre_10-3" x1="339.42" x2="339.42" xlink:href="#Degradado_sin_nombre_10"/><clipPath id="clippath-3"><path class="cls-2" d="M281.25,471.19v202.66c18.9,3.26,38.33,4.98,58.17,4.98,67.16,0,129.76-19.51,182.45-53.16l-240.62-154.48Z"/></clipPath><linearGradient id="Degradado_sin_nombre_10-4" x1="339.42" x2="339.42" xlink:href="#Degradado_sin_nombre_10"/></defs><g class="cls-6"><rect class="cls-1" y="0" width="678.83" height="678.83"/></g><g class="cls-7"><rect class="cls-5" x="0" y="0" width="678.83" height="678.83"/></g><g class="cls-9"><rect class="cls-4" x="0" y="0" width="678.83" height="678.83"/></g><g class="cls-8"><rect class="cls-3" x="0" y="0" width="678.83" height="678.83"/></g></svg>