<?xml version="1.0" encoding="UTF-8"?><svg id="Capa_1" xmlns="http://www.w3.org/2000/svg" xmlns:xlink="http://www.w3.org/1999/xlink" viewBox="0 0 678.83 834.5"><defs><style>.cls-1{fill:url(#Degradado_sin_nombre_10);}.cls-1,.cls-2,.cls-3,.cls-4,.cls-5,.cls-6{stroke-width:0px;}.cls-7{clip-path:url(#clippath);}.cls-2{fill:none;}.cls-8{clip-path:url(#clippath-1);}.cls-9{clip-path:url(#clippath-3);}.cls-10{clip-path:url(#clippath-2);}.cls-3{fill:url(#Degradado_sin_nombre_10-4);}.cls-4{fill:url(#Degradado_sin_nombre_10-3);}.cls-5{fill:url(#Degradado_sin_nombre_10-2);}</style><clipPath id="clippath"><path class="cls-2" d="M600.05,122.01l-295.01,231.79,302.25,194.05c44.83-57.53,71.54-129.86,71.54-208.44,0-82.72-29.61-158.52-78.78-217.41Z"/></clipPath><linearGradient id="Degradado_sin_nombre_10" x1="339.42" y1="10.11" x2="339.42" y2="688.94" gradientUnits="userSpaceOnUse"><stop offset="0" stop-color="#fbe073"/><stop offset=".32" stop-color="#e9a03f"/><stop offset=".67" stop-color="#cc443e"/><stop offset="1" stop-color="#a23067"/></linearGradient><clipPath id="clippath-1"><path class="cls-2" d="M281.25,228.98l231.16-181.62C461.75,17.29,402.6,0,339.42,0c-19.83,0-39.27,1.72-58.17,4.98v224Z"/></clipPath><linearGradient id="Degradado_sin_nombre_10-2" x1="339.42" x2="339.42" xlink:href="#Degradado_sin_nombre_10"/><clipPath id="clippath-2"><path class="cls-2" d="M166.46,47.34C66.81,106.48,0,215.14,0,339.42s66.81,232.94,166.46,292.07V47.34Z"/></clipPath><linearGradient id="Degradado_sin_nombre_10-3" x1="339.42" x2="339.42" xlink:href="#Degradado_sin_nombre_10"/><clipPath id="clippath-3"><path class="cls-2" d="M281.25,471.19v202.66c18.9,3.26,38.33,4.98,58.17,4.98,67.16,0,129.76-19.51,182.45-53.16l-240.62-154.48Z"/></clipPath><linearGradient id="Degradado_sin_nombre_10-4" x1="339.42" x2="339.42" xlink:href="#Degradado_sin_nombre_10"/></defs><g class="cls-7"><rect class="cls-1" y="0" width="678.83" height="678.83"/></g><g class="cls-8"><rect class="cls-5" x="0" y="0" width="678.83" height="678.83"/></g><g class="cls-10"><rect class="cls-4" x="0" y="0" width="678.83" height="678.83"/></g><g class="cls-9"><rect class="cls-3" x="0" y="0" width="678.83" height="678.83"/></g><path class="cls-6" d="M66.28,728.93c6.29,3.28,12.27,9.68,12.27,20.07,0,11.22-6.97,19.47-14.36,22.03v.28c12.23,2.99,20.33,11.23,20.33,24.32,0,9.81-4.55,16.2-10.81,20.75-6.26,4.55-15.07,6.4-25.17,6.4H8.45v-98.12h33.42c8.96,0,17.63.71,24.42,4.25ZM51.46,761.95c2.49-1.72,4.48-4.28,4.48-9.12s-1.99-7.39-4.83-9.1c-2.7-1.71-5.26-1.99-10.24-1.99h-9.53v22.61h8.96c5.12,0,8.1-.28,11.16-2.4ZM56.23,802.6c3.41-2.28,4.98-5.55,4.98-9.81s-1.56-7.39-4.75-9.66c-3.63-2.57-7.47-2.86-12.45-2.86h-12.66v25.03h12.66c4.98,0,8.82-.28,12.23-2.7Z"/><path class="cls-6" d="M147.66,724.68l36.97,98.12h-25.03l-6.97-19.77h-34.98l-6.97,19.77h-23.89l36.97-98.12h23.89ZM135.15,749.85l-12.23,35.26h24.46l-12.23-35.26Z"/><path class="cls-6" d="M217.62,724.68l42.09,65.98s-.43-11.09-.43-21.47v-44.51h22.47v98.12h-23.6l-43.09-66.55s.43,11.8.43,22.18v44.37h-22.47v-98.12h24.6Z"/><path class="cls-6" d="M322.57,724.68v35.83l30.29-35.83h27.3l-34.55,39.1,36.97,59.01h-27.59l-24.6-40.95-7.82,8.67v32.28h-22.89v-98.12h22.89Z"/><path class="cls-6" d="M412.15,724.68v98.12h-23.04v-98.12h23.04Z"/><path class="cls-6" d="M421.68,742.88v-18.2h73.66v18.2h-25.31v79.91h-23.04v-79.91h-25.31Z"/><path class="cls-6" d="M493.49,773.88c0-31.71,22.89-50.76,52.04-50.76s52.04,19.05,52.04,50.76-22.89,50.62-52.04,50.62-52.04-18.91-52.04-50.62ZM574.26,773.31c0-18.63-12.37-30.57-28.72-30.57s-28.72,11.8-28.72,30.57,12.37,30.71,28.72,30.71,28.72-11.94,28.72-30.71Z"/><path class="cls-6" d="M640.1,805.3c7.39,0,13.08-3.55,13.08-10.1s-7.26-9.21-11.52-10.81l-13.65-5.12c-12.24-4.59-20.62-12.02-20.62-26.45,0-20.27,18.18-29.29,36.12-29.29,11.38,0,24.46,5.4,31.14,12.09l-9.81,16.07c-5.69-5.69-14.5-9.95-21.9-9.95s-12.8,2.84-12.8,8.82,5.3,8.15,9.95,9.95l14.65,5.55c12.5,4.61,21.33,12.59,21.33,26.88,0,21.24-19.11,31.57-38.11,31.57-14.22,0-26.88-7.39-34.84-14.79l11.38-16.78c7.11,7.39,18.06,12.37,25.6,12.37Z"/></svg>